PathFileType	4	(X/Y/Z)	C:\Users\u0145647\OneDrive - KU Leuven\KU Leuven\c3d2osim\CP4\T0\Data\Processed\ViconC3D_CP4_2\CP4_T0_10_gapFilled.trc
DataRate	CameraRate	NumFrames	NumMarkers	Units	OrigDataRate	OrigDataStartFrame	OrigNumFrames
100.000000	100.000000	5	47	mm	100.000000	475	633
Frame#	Time	C7			T10			CLAV			STRN			LSHO			RSHO			RBAK			LASI			RASI			LPSI			RPSI			LLAT			RLAT			LF1			LF2			LF3			LTHI			LKNE			LMEK			RF1			RF2			RF3			RTHI			RKNE			RMEK			LT1			LT2			LT3			LTIB			LANK			LMM			RT1			RT2			RT3			RTIB			RANK			RMM			LHEE			LSTL			LLCA			LTOE			LCM5			RHEE			RSTL			RLCA			RTOE			RCM5
		X1	Y1	Z1	X2	Y2	Z2	X3	Y3	Z3	X4	Y4	Z4	X5	Y5	Z5	X6	Y6	Z6	X7	Y7	Z7	X8	Y8	Z8	X9	Y9	Z9	X10	Y10	Z10	X11	Y11	Z11	X12	Y12	Z12	X13	Y13	Z13	X14	Y14	Z14	X15	Y15	Z15	X16	Y16	Z16	X17	Y17	Z17	X18	Y18	Z18	X19	Y19	Z19	X20	Y20	Z20	X21	Y21	Z21	X22	Y22	Z22	X23	Y23	Z23	X24	Y24	Z24	X25	Y25	Z25	X26	Y26	Z26	X27	Y27	Z27	X28	Y28	Z28	X29	Y29	Z29	X30	Y30	Z30	X31	Y31	Z31	X32	Y32	Z32	X33	Y33	Z33	X34	Y34	Z34	X35	Y35	Z35	X36	Y36	Z36	X37	Y37	Z37	X38	Y38	Z38	X39	Y39	Z39	X40	Y40	Z40	X41	Y41	Z41	X42	Y42	Z42	X43	Y43	Z43	X44	Y44	Z44	X45	Y45	Z45	X46	Y46	Z46	X47	Y47	Z47

475	4.74	NaN	NaN	NaN	NaN	NaN	NaN	2666.6	1347.3	-174.08	2705.5	1200.9	-189.36	2613.5	1399.4	-383.78	2602.3	1361.1	24.091	2518.2	1324.3	-46.722	2713.5	915.51	-291.12	2702.8	920.77	-89.763	2538.2	944.25	-239.01	2532.5	953.1	-164.95	2651.1	983.23	-345.97	2633.4	984.35	-47.778	2717.6	650.71	-360.21	2697.4	692.43	-358.89	2685.4	641.42	-367.82	NaN	NaN	NaN	2728.1	444.09	-349.84	NaN	NaN	NaN	2680.8	639.36	-64.138	2695.2	673.87	-57.322	2636	666.64	-59.146	2695.1	573.55	-35.685	2735.1	464.96	-122.1	NaN	NaN	NaN	2571	355.42	-353.8	2630.9	349.88	-344.65	2599.8	389.61	-355.47	2556.6	266.88	-370.52	2387.6	208.55	-303.87	2414.4	206.99	-220.93	2696.6	318.64	-106.1	2724.2	359.03	-122.45	2678.7	367.84	-101.42	2707.7	243.86	-69.043	2648.2	75.884	-129.34	2651.7	93.946	-215.55	2349.9	236.83	-252.84	2396.7	213.26	-215.83	2370.8	187.49	-296.11	2442	90.141	-258.64	2424.7	87.606	-300.3	2593.8	73.619	-165.17	2648.8	57.486	-211.55	2653.4	50.519	-133.54	2772.9	52.423	-171.16	2751.4	38.033	-115.78
476	4.75	NaN	NaN	NaN	NaN	NaN	NaN	2676.6	1348.5	-174.19	2715.5	1202.2	-189.41	2621.3	1400.1	-383.66	2614.1	1362.9	24.629	2529.3	1325.8	-45.256	2723.2	917.03	-290.53	2712	921.54	-89.625	2547.8	945.18	-238.74	2541.9	954.13	-164.59	2662.8	985.37	-346	2643.4	985.73	-47.539	2731.8	654.01	-361.28	2709.8	694.69	-360.03	2699.5	644.09	-367.96	NaN	NaN	NaN	2746.9	447.22	-350.76	NaN	NaN	NaN	2685.7	639.71	-64.29	2700.1	673.76	-57.148	2642.9	667.25	-59.711	2700.9	573.81	-35.96	2739.5	464.52	-122.4	NaN	NaN	NaN	2592.4	355.1	-354.94	2652.2	351.24	-345.45	2620.4	390.12	-356.95	2581	265.14	-370.64	2411.1	205.19	-305.01	2441.4	202.94	-222.48	2699.6	318.71	-106.14	2727.2	358.83	-122.47	2681.5	367.6	-101.22	2709.9	243.55	-69.096	2648.8	76.436	-128.81	2651.8	94.222	-215.27	2373	231.94	-254.37	2405	215.41	-214.27	2395.2	183.69	-297.49	2470.6	89.063	-261.33	2453	86.222	-302.79	2594.1	74.363	-164.61	2648.7	57.664	-211.05	2653.7	50.933	-133.05	2773	52.345	-171.1	2751.5	37.919	-115.69
477	4.76	NaN	NaN	NaN	NaN	NaN	NaN	2686.4	1349.9	-174.27	2725.3	1203.5	-189.42	2629.1	1400.8	-383.49	2625.8	1364.5	24.986	2540.2	1327.3	-43.693	2732.7	918.51	-289.97	2720.9	922.32	-89.498	2557.2	946.7	-238.82	2551.2	955.83	-165.1	2671.8	986.92	-345.52	2652.5	986.53	-47.792	2746	657.35	-362.43	2722.9	697.48	-360.78	2714.3	646.84	-369.1	NaN	NaN	NaN	2766.1	451.19	-351.04	NaN	NaN	NaN	2691.4	639.98	-64.56	2706.7	674.1	-57.459	2649.5	668.46	-59.547	2705.8	573.58	-36.283	2743.2	464.01	-122.44	NaN	NaN	NaN	2614.1	354.58	-355.9	2673.7	352.46	-346.01	2640.9	390.44	-357.97	2605	263.78	-370.68	2435.9	201.39	-306.58	2468.4	198.89	-224.03	2701.9	318.31	-106.04	2730.2	358.64	-122.48	2684.8	367.85	-101.09	2712.1	243.47	-68.896	2649.3	77.007	-128.22	2652.3	94.818	-214.99	2397.1	226.14	-255.47	2413.4	217.16	-212.54	2420.4	179.06	-298.96	2500.1	87.513	-264.44	2482.4	84.527	-306.11	2594.4	75.116	-163.82	2648.7	58.022	-210.71	2653.9	51.222	-132.72	2773	52.275	-170.93	2751.6	37.886	-115.44
478	4.77	NaN	NaN	NaN	NaN	NaN	NaN	2696.3	1351.2	-174.36	2735.1	1204.8	-189.4	2637	1401.5	-383.44	2637	1365.8	25.21	2551	1329.3	-42.798	2742.2	920.12	-289.47	2729.5	923	-89.382	2566.7	948.68	-239.62	2560.1	957.8	-166.15	2681.3	988.62	-345.32	2661.8	987.49	-47.87	2760.3	660.85	-363.52	2735.8	700.31	-361.72	2728.5	649.7	-369.65	NaN	NaN	NaN	2784.6	454.85	-351.19	NaN	NaN	NaN	2698.2	640.61	-64.721	2717.5	675.5	-57.67	2656.1	668.94	-59.978	2713	574.85	-36.194	2747.2	463.64	-122.22	NaN	NaN	NaN	2635.6	353.93	-356.97	2695.2	353.64	-346.25	2661.4	390.4	-358.85	2630	263.34	-371.19	2461.7	196.49	-308.62	2495.4	194.84	-225.59	2704.3	318.27	-105.8	2733.3	358.45	-122.5	2687.9	368.12	-100.78	2714.1	243.66	-68.654	2649.2	76.821	-128.19	2652	95.236	-214.24	2421.7	219.06	-256.55	2449.2	201.5	-217.74	2446.7	173.64	-300.7	2530.5	85.419	-267.94	2512.6	82.003	-309.08	2594.6	75.707	-162.88	2648.7	58.343	-210.19	2654.2	51.664	-132.43	2773.1	52.167	-170.72	2751.6	37.725	-115.2
479	4.78	NaN	NaN	NaN	NaN	NaN	NaN	2706	1352.4	-174.47	2744.8	1206	-189.32	2645	1402.2	-383.4	2648.1	1367.7	25.487	2561.7	1331	-41.457	2751.8	921.62	-288.99	2737.9	923.62	-89.293	2576	950.37	-240.87	2569.2	959.03	-166.88	2691.1	990.35	-345.17	2670.6	988.17	-48.096	2773.4	664.07	-364.22	2749	703.47	-362.72	2742.6	652.35	-370.53	NaN	NaN	NaN	2803.4	458.99	-351.15	NaN	NaN	NaN	2703.7	640.91	-64.849	2723.8	675.64	-57.791	2662.3	669.88	-60.009	2717.7	574.97	-36.237	2751.2	463.47	-122	NaN	NaN	NaN	2657	353.5	-356.9	2716.7	354.98	-346.48	2681.8	390.56	-359.18	2653.4	262.64	-371.82	2487.8	190.93	-310.1	2520.8	190.14	-227.2	2706.7	318.42	-105.4	2736.3	358.25	-122.51	2690.9	368.55	-100.53	2716	243.89	-68.246	2650	78.002	-127.31	2652.3	95.875	-213.67	2447.1	211.55	-257.9	2485	185.84	-222.95	2473.8	167.41	-302.63	2561.7	82.908	-271.74	2543.8	79.536	-313.03	2595.2	76.515	-162.33	2648.7	58.897	-209.68	2654.4	52.272	-131.87	2773.2	52.048	-170.38	2751.7	37.566	-114.96
